<?xml version="1.0" encoding="utf-8"?>
<!-- Generator: Adobe Illustrator 24.2.0, SVG Export Plug-In . SVG Version: 6.00 Build 0)  -->
<svg version="1.1" id="Layer_1" xmlns="http://www.w3.org/2000/svg" xmlns:xlink="http://www.w3.org/1999/xlink" x="0px" y="0px"
	 viewBox="0 0 511 511" style="enable-background:new 0 0 511 511;" xml:space="preserve">
<g>
	<path d="M357.7,153.3v255.5c0,18.6-5,36.1-13.7,51.1c-8.9,15.5-21.9,28.4-37.4,37.4c-15,8.7-32.5,13.7-51.1,13.7s-36-5-51.1-13.7
		V511h-51.1V306.6h102.2v51.1h-51.1v51.1c0,28.2,22.9,51.1,51.1,51.1c28.2,0,51.1-22.9,51.1-51.1V153.3H357.7z"/>
	<g>
		<path d="M357.7,102.2h-51.1c0-28.2-22.9-51.1-51.1-51.1c-28.2,0-51.1,22.9-51.1,51.1v153.3h-51.1V0h51.1v13.7
			C219.4,5,236.9,0,255.5,0s36.1,5,51.1,13.7c15.5,8.9,28.4,21.9,37.4,37.4C352.7,66.1,357.7,83.6,357.7,102.2z"/>
	</g>
</g>
</svg>
